<?xml version="1.0" standalone="no"?>
<!DOCTYPE svg PUBLIC "-//W3C//DTD SVG 20010904//EN"
 "http://www.w3.org/TR/2001/REC-SVG-20010904/DTD/svg10.dtd">
<svg version="1.0" xmlns="http://www.w3.org/2000/svg"
 width="512.000000pt" height="512.000000pt" viewBox="0 0 512.000000 512.000000"
 preserveAspectRatio="xMidYMid meet">
<metadata>
Created by potrace 1.14, written by Peter Selinger 2001-2017
</metadata>
<g transform="translate(0.000000,512.000000) scale(0.100000,-0.100000)"
fill="#000000" stroke="none">
<path d="M685 5101 c-69 -23 -115 -53 -165 -107 -111 -121 -132 -285 -56 -437
29 -58 31 -66 18 -83 -32 -42 -62 -123 -68 -185 -17 -181 89 -342 266 -403 53
-18 168 -20 218 -3 30 11 44 12 50 3 5 -6 41 -68 81 -138 40 -70 80 -133 88
-139 8 -7 28 -12 45 -12 40 0 80 43 74 79 -7 37 -335 602 -359 619 -12 8 -32
15 -45 15 -29 0 -72 -42 -72 -72 0 -12 23 -62 51 -111 59 -104 56 -111 -34
-103 -133 10 -224 121 -211 256 5 51 25 91 70 138 61 63 62 94 4 155 -45 47
-62 83 -67 147 -13 137 100 253 237 246 101 -6 185 -76 216 -181 18 -63 44
-81 101 -70 151 29 249 -9 305 -119 35 -68 22 -179 -28 -238 l-23 -28 -22 36
c-12 19 -33 40 -46 45 -55 21 -111 -24 -100 -80 7 -32 169 -316 197 -345 29
-29 79 -25 106 9 28 35 24 60 -22 138 l-35 59 40 43 c118 128 138 302 54 457
-64 117 -202 192 -348 189 -50 -1 -50 0 -74 45 -34 64 -119 138 -189 164 -76
29 -190 34 -257 11z"/>
<path d="M3759 5015 c-43 -14 -116 -71 -135 -107 -6 -12 -26 -20 -57 -23 -102
-12 -181 -70 -217 -161 -40 -96 -15 -219 57 -285 43 -40 63 -48 96 -38 65 19
75 77 22 135 -43 47 -53 90 -30 137 21 45 60 61 128 54 68 -7 96 8 116 64 22
58 72 93 121 84 92 -17 121 -111 59 -188 -39 -49 -40 -78 -2 -125 41 -50 48
-77 33 -123 -19 -55 -71 -80 -140 -66 -61 12 -96 0 -111 -40 -25 -65 40 -117
146 -116 146 1 252 98 263 242 3 54 0 77 -17 117 -21 48 -21 52 -5 89 22 53
25 137 8 189 -45 132 -198 205 -335 161z"/>
<path d="M1083 4260 c-25 -10 -43 -39 -43 -70 0 -11 44 -96 97 -188 53 -92
106 -185 118 -207 30 -54 121 -209 157 -267 33 -53 64 -66 108 -43 21 11 31
25 36 50 6 31 -10 62 -186 367 -106 183 -197 338 -204 345 -16 17 -58 24 -83
13z"/>
<path d="M4297 4167 c-27 -12 -66 -46 -107 -94 -36 -41 -70 -80 -76 -87 -7 -7
-89 -101 -183 -209 -171 -197 -171 -197 -172 -160 -1 87 -24 138 -85 192 -121
106 -311 70 -383 -74 -24 -48 -32 -127 -19 -175 7 -24 3 -27 -45 -44 -33 -12
-67 -34 -94 -62 l-43 -44 -37 23 c-21 13 -52 29 -70 35 -43 14 -150 9 -194
-10 -43 -19 -106 -73 -129 -110 l-16 -27 -156 154 c-93 92 -165 155 -179 157
-55 9 -84 -12 -247 -174 -106 -107 -165 -173 -170 -193 l-8 -29 -170 -3 c-206
-3 -227 -6 -256 -41 l-23 -28 -177 -2 c-199 -2 -229 -9 -253 -65 -7 -18 -11
-35 -9 -39 11 -17 -17 -6 -97 38 -74 41 -152 84 -206 113 -51 27 -89 29 -134
5 -33 -17 -61 -74 -55 -111 10 -52 35 -76 141 -133 22 -12 74 -40 115 -63 41
-22 98 -53 125 -69 28 -15 69 -38 92 -50 48 -24 49 -26 58 -123 7 -81 13 -140
20 -210 3 -27 7 -72 10 -100 3 -27 7 -70 10 -95 3 -25 7 -70 10 -100 3 -30 8
-80 11 -110 3 -30 7 -71 9 -90 2 -19 9 -82 15 -140 6 -58 13 -121 15 -140 2
-19 6 -66 10 -105 17 -193 40 -258 122 -346 25 -27 42 -49 37 -50 -5 0 -85 0
-179 0 -202 0 -229 -3 -255 -31 -23 -25 -25 -46 -8 -82 14 -31 52 -43 131 -41
31 1 58 -1 58 -4 1 -3 2 -103 3 -221 1 -118 5 -220 9 -226 5 -9 -33 -12 -138
-12 -193 0 -220 -16 -232 -137 -7 -71 11 -129 49 -156 30 -22 42 -23 207 -24
l176 -1 1 -85 c0 -63 5 -92 18 -111 37 -56 164 -65 214 -14 24 24 27 36 32
119 l5 92 1213 0 c666 0 1213 -2 1213 -5 1 -3 3 -37 4 -77 3 -91 18 -127 60
-147 62 -30 157 -16 185 27 8 13 16 59 20 112 l5 90 165 0 c178 0 211 7 244
52 28 38 28 172 0 210 -35 47 -62 54 -213 55 -78 1 -138 5 -135 10 3 5 5 108
5 228 -1 121 2 220 6 221 5 1 41 2 81 3 59 2 77 7 94 24 28 28 28 77 -1 105
-21 21 -30 22 -219 24 -108 1 -203 2 -210 2 -6 1 6 17 27 37 45 40 82 98 104
164 14 42 18 71 33 220 3 30 7 69 9 85 2 17 6 62 10 100 3 39 8 84 10 100 2
17 7 59 10 95 3 36 10 103 15 150 5 47 12 114 15 150 3 36 10 99 15 140 5 41
14 132 21 201 6 70 14 132 18 137 4 6 110 68 236 137 127 69 240 138 252 152
42 51 32 119 -23 162 -49 39 -97 26 -266 -68 -180 -100 -178 -99 -178 -72 0
32 -27 67 -61 81 -16 7 -74 13 -129 13 l-99 1 14 33 c16 38 15 32 15 82 0 37
5 44 97 123 54 45 105 90 113 98 9 8 41 36 71 61 334 285 360 315 361 409 1
160 -158 263 -305 197z m-2757 -3144 c0 -1 -15 -33 -34 -70 -54 -108 -66 -143
-66 -189 0 -49 25 -130 46 -151 8 -8 19 -23 24 -33 9 -17 2 -18 -148 -18
l-157 0 0 227 c0 174 3 227 13 231 11 5 322 8 322 3z m892 -3 c1 -3 -17 -43
-40 -90 -52 -105 -63 -160 -46 -227 14 -54 50 -123 65 -123 5 0 9 -4 9 -9 0
-6 -105 -9 -260 -9 -143 0 -260 5 -260 9 0 5 4 9 9 9 6 0 24 29 42 65 45 92
40 156 -24 284 -26 51 -47 94 -47 95 0 4 550 0 552 -4z m908 2 c0 -1 -10 -19
-23 -40 -39 -64 -77 -157 -81 -203 -4 -53 14 -118 48 -170 14 -21 26 -40 26
-43 0 -2 -116 -4 -259 -4 l-259 1 34 44 c41 54 49 79 49 159 0 53 -6 74 -47
157 -27 52 -48 97 -48 99 0 1 126 3 280 3 154 0 280 -1 280 -3z m670 -229 l5
-231 -163 0 -163 1 19 21 c74 80 86 195 33 311 -18 38 -41 81 -52 96 -10 14
-17 28 -14 30 2 2 77 4 167 4 l163 0 5 -232z"/>
<path d="M2230 4138 c-21 -23 -23 -31 -22 -115 1 -64 13 -88 51 -101 35 -12
70 2 89 38 19 37 11 153 -12 179 -26 28 -79 28 -106 -1z"/>
<path d="M2750 4023 c-36 -15 -49 -47 -50 -121 0 -64 3 -76 25 -97 13 -14 36
-25 50 -25 14 0 37 11 50 25 22 21 25 33 25 98 0 57 -4 80 -17 95 -19 23 -59
35 -83 25z"/>
<path d="M1563 3880 c-26 -11 -48 -48 -44 -75 4 -28 30 -76 54 -102 41 -46
127 -14 127 46 0 35 -49 117 -76 130 -29 13 -31 13 -61 1z"/>
</g>
</svg>
